<svg width="197" height="91" viewBox="0 0 197 91" fill="none" xmlns="http://www.w3.org/2000/svg">
<path d="M2.58472 90.0001H13.5707V72.7142H35.5357V63.9017H13.5707V51.3595H38.4491V42.547H2.58472V90.0001Z" fill="white"/>
<path d="M197 90.0001L196.865 42.547H187.848L170.371 72.0118L152.592 42.547H143.51V90.0001H153.814V62.1302L167.713 84.9831H172.661L186.633 61.5178L186.696 90.0001H197Z" fill="white"/>
<path d="M128.23 74.7486C131.302 73.3923 133.675 71.4489 135.347 68.9186C137.022 66.3398 137.858 63.2892 137.856 59.767C137.856 56.1964 137.019 53.1228 135.347 50.5463C133.61 47.9232 131.133 45.8758 128.23 44.6644C125.157 43.262 121.496 42.5619 117.247 42.5642H96.7007V90H107.683V76.7726H117.244C117.417 76.7726 117.59 76.7726 117.756 76.7726L126.87 90.0034H138.735L128.133 74.7797L128.23 74.7486ZM124.23 53.6637C125.9 55.11 126.736 57.1444 126.738 59.767C126.738 62.3412 125.902 64.3745 124.23 65.8669C122.56 67.3132 120.028 68.0363 116.635 68.0363H107.687V51.4943H116.635C120.026 51.4943 122.557 52.2174 124.23 53.6637Z" fill="white"/>
<path d="M11.7714 33.9803C14.0569 34.8137 16.4736 35.2298 18.9063 35.2085C21.5817 35.2522 24.2369 34.7373 26.702 33.6965C28.9826 32.7277 30.994 31.2198 32.5635 29.3024L27.6501 24.7664C26.6125 26.013 25.3239 27.0269 23.8681 27.742C22.4412 28.3775 20.8938 28.6973 19.3319 28.6796C17.8796 28.6972 16.437 28.4414 15.0793 27.9254C13.8216 27.4423 12.6785 26.7023 11.723 25.7525C10.7689 24.7942 10.0149 23.6557 9.50504 22.4033C8.98488 21.03 8.72782 19.571 8.74727 18.1026C8.72765 16.6342 8.98472 15.1752 9.50504 13.8019C10.0141 12.547 10.7681 11.4061 11.723 10.4458C12.6779 9.49351 13.821 8.75109 15.0793 8.266C16.4376 7.75355 17.8802 7.5012 19.3319 7.52211C20.8992 7.50633 22.4498 7.84459 23.8681 8.51166C25.3189 9.18715 26.6084 10.1651 27.6501 11.3799L32.5635 6.84397C30.999 4.93641 28.9847 3.4478 26.702 2.51212C24.2529 1.47471 21.6142 0.959732 18.9547 1.00013C16.5173 0.973169 14.0967 1.40632 11.8199 2.27685C9.69579 3.06392 7.75096 4.26863 6.10026 5.81982C4.49501 7.36379 3.21089 9.20989 2.32178 11.2519C1.42214 13.4225 0.97247 15.7531 1 18.1026C0.972097 20.4532 1.42177 22.785 2.32178 24.9567C3.21089 26.9988 4.49501 28.8449 6.10026 30.3888C7.73496 31.9487 9.66244 33.1693 11.7714 33.9803V33.9803Z" fill="white"/>
<path d="M180.71 35.2084C185.402 35.2084 189.072 33.9017 191.72 31.2883C194.368 28.6748 195.691 24.9416 195.689 20.0884V1.56738H188.128V19.8047C188.128 22.9579 187.482 25.2264 186.191 26.6104C184.899 27.9944 183.087 28.6864 180.755 28.6864C178.427 28.6864 176.616 27.9944 175.322 26.6104C174.028 25.2264 173.382 22.9579 173.385 19.8047V1.56738H165.731V20.0884C165.731 24.9323 167.054 28.6656 169.7 31.2883C172.345 33.9109 176.015 35.2176 180.71 35.2084Z" fill="white"/>
<path d="M123.531 34.6409L137.845 1.56738H130.24L120.026 25.1884L109.967 1.56738H101.697L115.97 34.6409H123.531Z" fill="white"/>
<path d="M58.0509 14.6079H43.0269V1.56738H35.3696V34.6409H43.0269V21.0814H58.0509V34.6409H65.7047V1.56738H58.0509V14.6079Z" fill="white"/>
<path d="M156.907 33.7898C158.983 32.8464 160.543 31.602 161.585 30.0566C162.61 28.5543 163.151 26.7748 163.136 24.9566C163.136 23.2243 162.773 21.7908 162.049 20.6559C161.374 19.5384 160.442 18.5988 159.329 17.9156C158.139 17.1993 156.859 16.6432 155.523 16.2618C154.169 15.8535 152.799 15.4914 151.413 15.1754C150.026 14.8594 148.782 14.5445 147.679 14.2308C146.701 13.9847 145.773 13.569 144.939 13.0025C144.611 12.7655 144.346 12.453 144.165 12.0916C143.985 11.7302 143.894 11.3306 143.901 10.9266C143.886 10.2458 144.102 9.57999 144.513 9.03744C145.038 8.38353 145.747 7.90156 146.548 7.65346C147.72 7.2697 148.951 7.09292 150.184 7.13101C151.72 7.13945 153.246 7.36187 154.72 7.79186C156.341 8.23463 157.897 8.88593 159.35 9.72943L161.713 3.92019C160.072 2.9052 158.272 2.17304 156.388 1.75427C154.379 1.25289 152.317 0.999577 150.246 1C147.125 1 144.526 1.47286 142.447 2.41858C140.369 3.36429 138.826 4.60872 137.818 6.15185C136.815 7.68023 136.288 9.4722 136.306 11.3002C136.306 13.0648 136.652 14.5134 137.344 15.6459C138.044 16.7598 138.991 17.6974 140.112 18.3862C141.285 19.0988 142.538 19.6702 143.845 20.0885C145.229 20.5314 146.599 20.9096 147.956 21.2233C149.312 21.537 150.573 21.8519 151.738 22.1679C152.727 22.4136 153.66 22.8471 154.485 23.4446C154.818 23.6761 155.088 23.9875 155.269 24.3502C155.45 24.7129 155.538 25.1153 155.523 25.5206C155.53 26.1945 155.296 26.8486 154.862 27.3647C154.303 27.9762 153.584 28.4186 152.786 28.6414C151.601 28.9594 150.376 29.1028 149.15 29.067C147.143 29.0638 145.15 28.7451 143.243 28.1225C141.462 27.5301 139.775 26.6866 138.233 25.6175L135.634 31.3817C137.115 32.5166 139.068 33.4392 141.492 34.1497C143.969 34.8505 146.531 35.1999 149.105 35.1877C152.258 35.2015 154.859 34.7356 156.907 33.7898Z" fill="white"/>
<path d="M100.853 20.0884V1.56738H93.282V19.8047C93.282 22.9579 92.6362 25.2264 91.3444 26.6104C90.0526 27.9944 88.2418 28.6864 85.9119 28.6864C83.5798 28.6864 81.7678 27.9944 80.476 26.6104C79.1843 25.2264 78.5384 22.9579 78.5384 19.8047V1.56738H70.8845V20.0884C70.8845 24.9323 72.2075 28.6656 74.8533 31.2883C77.4992 33.9109 81.1692 35.2176 85.8635 35.2084C90.5555 35.2084 94.2255 33.9017 96.8737 31.2883C99.5218 28.6748 100.848 24.9416 100.853 20.0884Z" fill="white"/>
<path d="M57.7914 88.616C60.0562 88.9938 62.3756 88.8829 64.5941 88.2908C64.0266 87.9448 64.4972 87.54 64.4868 87.1352C64.4037 87.1525 64.3207 87.1594 64.2446 87.1836C62.9185 87.6251 61.5483 87.9209 60.1581 88.0659C58.6893 88.2336 57.2019 88.1161 55.7776 87.7199C55.5006 87.6376 55.2309 87.5323 54.9714 87.4051C52.304 86.0512 49.9171 84.2045 47.9369 81.9626C47.8712 81.8865 47.8123 81.8069 47.7051 81.6754C47.7658 81.6854 47.8251 81.7028 47.8815 81.7273C49.2829 82.7999 50.8953 83.1874 52.6254 83.2151C54.6686 83.2045 56.693 82.8247 58.6011 82.0941C61.513 81.0231 64.2578 79.5436 66.7532 77.6999C71.6264 74.22 75.7644 69.8119 78.9294 64.7286C80.3344 62.5145 81.4244 60.1157 82.1681 57.6012C82.6307 56.0776 82.8525 54.4911 82.8256 52.8991C82.8285 51.366 82.3757 49.8666 81.5246 48.5915C81.5095 48.5542 81.4968 48.5161 81.4865 48.4773C81.5765 48.543 81.6353 48.5776 81.6872 48.6226C83.852 50.5595 85.6419 52.8782 86.9674 55.4629C87.2918 56.1463 87.4977 56.8799 87.5763 57.6323C87.8208 59.7256 87.6251 61.8469 87.002 63.8602C86.8982 64.2062 86.7874 64.5764 86.6559 64.9985C86.8273 64.9612 86.9961 64.9126 87.1611 64.8532C87.4276 64.7459 87.6525 64.7459 87.8289 65.1404C88.4241 62.7184 88.5971 60.3968 88.0711 58.0406C88.1057 58.1236 88.1507 58.2066 88.1819 58.2931C88.8884 60.1963 89.3172 62.1912 89.4552 64.2166C89.5486 65.8254 89.5244 67.4378 89.5521 69.0605C89.5521 69.2231 89.5521 69.3857 89.5521 69.5518V85.8135C89.5521 86.6335 89.5521 87.45 89.5521 88.27C89.5712 88.5028 89.5396 88.737 89.4597 88.9565C89.3797 89.1759 89.2532 89.3755 89.0889 89.5415C88.9245 89.7075 88.7262 89.8359 88.5075 89.9181C88.2889 90.0002 88.055 90.0341 87.822 90.0173C80.4035 90.0173 72.9849 90.0173 65.5664 90.0173C63.056 90.0023 60.5643 89.5853 58.1859 88.7821C58.0405 88.7198 57.916 88.6645 57.7914 88.616ZM80.7841 67.4308C80.9121 67.7768 81.0574 68.1021 81.1301 68.4273C81.5435 70.0568 81.317 71.7828 80.4969 73.2505C80.1819 73.8382 79.909 74.4475 79.6803 75.0738C79.2716 76.1625 79.0948 77.3244 79.1613 78.4853C79.1782 79.0294 79.408 79.545 79.8014 79.9212C81.9536 82.0422 84.0851 84.1839 86.2269 86.3221C86.3203 86.4155 86.4207 86.502 86.5729 86.6681C86.5383 86.5193 86.5245 86.4605 86.5072 86.4017C86.0102 84.5604 85.8832 82.6388 86.1335 80.7481C86.3259 79.2232 86.6856 77.7241 87.2061 76.2779C88.0762 73.9313 88.4303 71.4248 88.2442 68.929C88.1597 67.8489 87.91 66.7882 87.5037 65.7839C87.4518 65.6593 87.386 65.5417 87.3168 65.4033L80.7841 67.4308ZM64.8674 87.758C64.9023 87.7918 64.9406 87.8219 64.9816 87.8479C65.1304 87.9171 65.2792 87.9863 65.4314 88.0417C66.8897 88.5787 68.4389 88.8256 69.9919 88.7683C71.9464 88.7167 73.8803 88.3558 75.7219 87.6992C77.3204 87.1192 78.9848 86.7403 80.6768 86.5712C82.384 86.3896 84.1101 86.5209 85.7702 86.9587C85.8705 86.9829 85.9708 86.9968 86.1404 87.0314C86.0227 86.9034 85.957 86.8272 85.8878 86.7581C83.6756 84.5506 81.4669 82.342 79.2616 80.1323C79.0443 79.9212 78.7701 79.7781 78.4727 79.7205C77.8899 79.6065 77.292 79.5925 76.7046 79.679C75.2892 79.8525 73.9219 80.3028 72.6804 81.0042C71.5071 81.6631 70.1559 81.9355 68.8189 81.7827C68.1558 81.7217 67.5101 81.5363 66.9158 81.236C66.2515 83.4157 65.5802 85.5713 64.8951 87.7511L64.8674 87.758ZM78.5661 77.6757L77.1821 79.0597L78.6872 79.16C78.6665 78.6722 78.6319 78.2051 78.5938 77.6688L78.5661 77.6757Z" fill="white"/>
<path d="M42.3522 69.749C42.5454 70.7708 43.0255 71.7164 43.7363 72.4754C44.6965 73.5267 45.9891 74.2157 47.3971 74.4268C49.0445 74.6886 50.7286 74.5978 52.3382 74.1604C54.7606 73.5516 57.0668 72.55 59.1651 71.1953C64.4597 67.9322 68.8023 63.3333 71.7566 57.8607C72.7464 56.0605 73.4569 54.1204 73.8638 52.1068C74.2214 50.5416 74.2155 48.9153 73.8465 47.3528C73.6149 46.3332 73.1178 45.3929 72.4056 44.6273C71.6935 43.8617 70.7915 43.298 69.7912 42.9933C69.6781 42.9643 69.5737 42.9086 69.4867 42.8307C69.9262 42.9103 70.3691 42.9829 70.8085 43.0763C73.694 43.6991 76.44 44.8486 78.9087 46.4671C79.7572 47.0204 80.4334 47.8008 80.8602 48.7195C81.4909 50.1161 81.7381 51.6555 81.5765 53.1794C81.3931 55.7017 80.5972 58.0544 79.535 60.3241C78.0349 63.4652 76.1116 66.386 73.8188 69.0051C70.6744 72.7142 66.9505 75.8899 62.7913 78.4092C60.612 79.7511 58.2576 80.785 55.7949 81.4817C54.4139 81.878 52.9826 82.0714 51.5459 82.056C50.2558 82.0603 48.9845 81.7479 47.8435 81.146C47.0872 80.7315 46.4443 80.1374 45.9716 79.4161C44.1267 76.6397 42.8864 73.5064 42.3315 70.2196C42.3159 70.0573 42.3159 69.894 42.3315 69.7317L42.3522 69.749Z" fill="white"/>
<path d="M42.3523 69.749C42.0868 68.5828 41.9705 67.3876 42.0063 66.1922C42.0126 64.0377 42.3153 61.8943 42.906 59.8224C42.9475 59.6805 42.906 59.4764 43.1136 59.4211L43.0651 59.6459C43.0472 59.6792 43.0322 59.7139 43.0201 59.7497C42.8407 60.653 42.8501 61.5836 43.0478 62.4831C43.1995 63.2174 43.574 63.8872 44.1201 64.401C44.6662 64.9149 45.3574 65.248 46.0997 65.3548C46.9565 65.5089 47.8349 65.4984 48.6879 65.3237C50.295 65.0054 51.8375 64.4207 53.2518 63.5937C56.3979 61.795 59.1417 59.3704 61.3139 56.4697C62.6092 54.825 63.6314 52.9827 64.3416 51.0134C64.8203 49.7507 65.0164 48.3984 64.9159 47.0518C64.8671 46.2468 64.5609 45.4788 64.0427 44.8608C63.5244 44.2429 62.8213 43.8078 62.0371 43.6195C61.3508 43.4486 60.6393 43.4029 59.9368 43.4846L58.9299 43.5918C59.0422 43.5365 59.1578 43.488 59.2759 43.4465C62.0337 42.6696 64.9077 42.3896 67.7636 42.6196C69.0321 42.6902 70.2393 43.1877 71.1892 44.0312C72.1611 44.9306 72.7754 46.1507 72.9193 47.467C73.1274 49.2364 72.9359 51.0301 72.3587 52.7157C71.5851 55.1438 70.4439 57.4391 68.9747 59.5214C65.8596 64.1159 61.7485 67.9489 56.9472 70.7351C55.1548 71.7905 53.2206 72.5839 51.2034 73.0913C49.9932 73.3961 48.7433 73.5128 47.4976 73.4373C46.7673 73.3907 46.0496 73.2247 45.373 72.946C44.7399 72.6913 44.1642 72.3124 43.6798 71.8317C43.1955 71.3509 42.8124 70.7781 42.553 70.1469C42.4873 70.0154 42.4181 69.8839 42.3523 69.749Z" fill="white"/>
<path d="M43.0684 59.6425L43.1168 59.4176C43.1941 59.0266 43.2911 58.6398 43.4075 58.2586C44.6051 54.928 46.5322 51.9073 49.0479 49.4175C51.5636 46.9278 54.6041 45.0319 57.947 43.8687C58.2653 43.758 58.5975 43.6853 58.9228 43.5953C59.0656 43.6246 59.21 43.6453 59.3553 43.6576C59.7013 43.6576 60.0473 43.6576 60.3933 43.6784C61.1315 43.7125 61.8345 44.0038 62.3805 44.5017C62.9265 44.9997 63.2811 45.6729 63.3829 46.4048C63.5087 47.1636 63.4923 47.9391 63.3344 48.6918C63.0384 50.1444 62.5041 51.5379 61.7532 52.8161C60.0026 55.8455 57.6539 58.4871 54.8502 60.5802C53.3125 61.7882 51.595 62.7478 49.7603 63.4242C48.688 63.8347 47.5447 64.0276 46.397 63.9917C44.5493 63.8948 43.3486 62.798 43.1203 60.9608C43.0684 60.511 43.0684 60.0819 43.0684 59.6425Z" fill="white"/>
</svg>
