<svg width="89" height="89" viewBox="0 0 89 89" fill="none" xmlns="http://www.w3.org/2000/svg">
<g clip-path="url(#clip0_418_2789)">
<path d="M44.5 89C69.0767 89 89 69.0767 89 44.5C89 19.9233 69.0767 0 44.5 0C19.9233 0 0 19.9233 0 44.5C0 69.0767 19.9233 89 44.5 89Z" fill="white"/>
<path d="M45 34C51.0751 34 56 29.0751 56 23C56 16.9249 51.0751 12 45 12C38.9249 12 34 16.9249 34 23C34 29.0751 38.9249 34 45 34Z" fill="#238FF6"/>
<path d="M63 54.6863C63 64.4541 50.3182 78 45 78C39.6818 78 27 64.4541 27 54.6863C27 44.9184 35.0589 37 45 37C54.9411 37 63 44.9184 63 54.6863Z" fill="#238FF6"/>
</g>
<defs>
<clipPath id="clip0_418_2789">
<rect width="89" height="89" fill="white"/>
</clipPath>
</defs>
</svg>
